<?xml version="1.0"?>
<svg xmlns="http://www.w3.org/2000/svg" id="Layer_1" data-name="Layer 1" viewBox="0 0 64 64"><title>Icons8 RSL Colored Part 8</title><path d="M9,23H49a0,0,0,0,1,0,0V55a2,2,0,0,1-2,2H11a2,2,0,0,1-2-2V23A0,0,0,0,1,9,23Z" style="fill:#c2cde7;"/><path d="M38,40v4a1,1,0,0,1-1,1H21a1,1,0,0,1-1-1V40a1,1,0,0,1,1-1H37a1,1,0,0,1,1,1Z" style="fill:#c5e4fa;"/><path d="M53,47l5.56,3.67a2,2,0,0,0,1.1.33H62a1,1,0,0,0,1-1V34a1,1,0,0,0-1-1H59.66a2,2,0,0,0-1.1.33L53,37Z" style="fill:#bbdef9;"/><path d="M9,53H49a0,0,0,0,1,0,0v2a2,2,0,0,1-2,2H11a2,2,0,0,1-2-2V53A0,0,0,0,1,9,53Z" style="fill:#acb7d0;"/><path d="M62,34h1a0,0,0,0,1,0,0V50a0,0,0,0,1,0,0H62a3,3,0,0,1-3-3V37A3,3,0,0,1,62,34Z" style="fill:#d2edff;"/><path d="M38,40v4a1,1,0,0,1-1,1H32l5.71-5.71A1,1,0,0,1,38,40Z" style="fill:#e3f2ff;"/><polygon points="34 39 28 45 22 45 28 39 34 39" style="fill:#e3f2ff;"/><polygon points="24 39 21 42 21 39 24 39" style="fill:#e3f2ff;"/><circle cx="42" cy="18" r="15" style="fill:#f9dd8f;"/><path d="M46.6,32.28c-4.48,1.45-9.91.82-15.15-2.93a2.69,2.69,0,0,1-.58-.57c-3.73-5-4.54-10.21-3.37-14.63a2.51,2.51,0,0,1,3.55-1.63h0a2.53,2.53,0,0,1,1.28,2.94,11.35,11.35,0,0,0,2.26,9.77,2.6,2.6,0,0,0,.66.62A11.41,11.41,0,0,0,45,27.53a2.53,2.53,0,0,1,3,1.12h0A2.52,2.52,0,0,1,46.6,32.28Z" style="fill:#f5c872;"/><circle cx="42" cy="18" r="3" style="fill:#acb7d0;"/><circle cx="12" cy="24" r="11" style="fill:#f9dd8f;"/><circle cx="12" cy="24" r="3" style="fill:#acb7d0;"/><path d="M43,61h0a2,2,0,0,1-2-2V57h4v2A2,2,0,0,1,43,61Z" style="fill:#f9e3ae;"/><path d="M15,61h0a2,2,0,0,1-2-2V57h4v2A2,2,0,0,1,15,61Z" style="fill:#f9e3ae;"/><rect x="49" y="37" width="4" height="10" style="fill:#acb7d0;"/><path d="M12,13a2.5,2.5,0,0,0,0,5,6,6,0,0,1,6,6,2.5,2.5,0,0,0,5,0A11,11,0,0,0,12,13Z" style="fill:#ffeb9b;"/><path d="M42,10a1,1,0,0,0,1-1V7a1,1,0,0,0-2,0V9A1,1,0,0,0,42,10Z" style="fill:#8d6c9f;"/><path d="M42,14a4,4,0,1,0,4,4A4,4,0,0,0,42,14Zm0,6a2,2,0,1,1,2-2A2,2,0,0,1,42,20Z" style="fill:#8d6c9f;"/><path d="M16,24a4,4,0,1,0-4,4A4,4,0,0,0,16,24Zm-6,0a2,2,0,1,1,2,2A2,2,0,0,1,10,24Z" style="fill:#8d6c9f;"/><path d="M62,32H59.66a3,3,0,0,0-1.65.5L52.7,36H50V31.84A16,16,0,1,0,26.51,22H23.83A12,12,0,1,0,8,35.31V55a3,3,0,0,0,3,3h1v1a3,3,0,0,0,6,0V58H40v1a3,3,0,0,0,6,0V58h1a3,3,0,0,0,3-3V48h2.7L58,51.5a3,3,0,0,0,1.65.5H62a2,2,0,0,0,2-2V34A2,2,0,0,0,62,32ZM8,33.16a9.8,9.8,0,1,1,2,.64A9.53,9.53,0,0,1,8,33.16ZM16,59a1,1,0,0,1-2,0V58h2Zm28,0a1,1,0,0,1-2,0V58h2Zm4-23V55a1,1,0,0,1-1,1H11a1,1,0,0,1-1-1V54H37a1,1,0,0,0,0-2H10V35.83A12,12,0,0,0,24,24h3.17A16,16,0,0,0,48,32.83Zm0-5.35a14.09,14.09,0,1,1,2-1.17A12.9,12.9,0,0,1,48,30.65ZM52,46H50V38h2Zm10,4H59.66a1,1,0,0,1-.55-.17L54,46.46V37.54l5.11-3.37a1,1,0,0,1,.55-.17H62Z" style="fill:#8d6c9f;"/><path d="M58,38v8a1,1,0,0,0,2,0V38a1,1,0,0,0-2,0Z" style="fill:#8d6c9f;"/><path d="M37,38H21a2,2,0,0,0-2,2v4a2,2,0,0,0,2,2H37a2,2,0,0,0,2-2V40A2,2,0,0,0,37,38ZM21,44V40H37v4Z" style="fill:#8d6c9f;"/><path d="M40,53a1,1,0,0,0,1,1h4a1,1,0,0,0,0-2H41A1,1,0,0,0,40,53Z" style="fill:#8d6c9f;"/><path d="M42,26a1,1,0,0,0-1,1v2a1,1,0,0,0,2,0V27A1,1,0,0,0,42,26Z" style="fill:#8d6c9f;"/><path d="M38,24.93a1,1,0,0,0-1.37.37l-1,1.73a1,1,0,0,0,1.73,1l1-1.73A1,1,0,0,0,38,24.93Z" style="fill:#8d6c9f;"/><path d="M33.71,21.63l-1.73,1a1,1,0,0,0,1,1.73l1.73-1a1,1,0,0,0-1-1.73Z" style="fill:#8d6c9f;"/><path d="M51,19h2a1,1,0,0,0,0-2H51a1,1,0,0,0,0,2Z" style="fill:#8d6c9f;"/><path d="M34,18a1,1,0,0,0-1-1H31a1,1,0,0,0,0,2h2A1,1,0,0,0,34,18Z" style="fill:#8d6c9f;"/></svg>
