<?xml version="1.0"?>
<svg xmlns="http://www.w3.org/2000/svg" id="Layer_1" data-name="Layer 1" viewBox="0 0 64 64"><title>Icons8 RSL Colored Part 10</title><path d="M59,33.05V57a2,2,0,0,1-2,2H7a2,2,0,0,1-2-2V33.05Z" style="fill:#faefde;"/><polygon points="55.57 33.05 29.56 59 23.13 59 49.14 33.05 55.57 33.05" style="fill:#fff7f0;"/><polygon points="59 33.91 59 49.96 49.9 59 33.83 59 59 33.91" style="fill:#fff7f0;"/><polygon points="44.86 33.05 18.87 59 13.51 59 39.5 33.05 44.86 33.05" style="fill:#fff7f0;"/><rect x="5" y="23.05" width="54" height="10" style="fill:#8b8e98;"/><path d="M5.89,8.89h50a2,2,0,0,1,2,2v8a0,0,0,0,1,0,0h-54a0,0,0,0,1,0,0v-8a2,2,0,0,1,2-2Z" transform="translate(-1.79 5) rotate(-9)" style="fill:#8b8e98;"/><circle cx="6" cy="23.05" r="3" style="fill:#f9e3ae;"/><path d="M17.74,22.05l41.74-6.61L58.07,6.55a3,3,0,0,0-3.43-2.49L5.25,11.88a2.94,2.94,0,0,0-2,1.2,3,3,0,0,0-.54,2.23l.73,4.63A4,4,0,0,0,4,26.51V57a3,3,0,0,0,3,3H57a3,3,0,0,0,3-3V22.05ZM4.74,15a1,1,0,0,1,.17-.75,1,1,0,0,1,.66-.4L55,6h.16a1,1,0,0,1,.59.19,1.06,1.06,0,0,1,.4.65l1.09,6.92L9.59,21.31A4,4,0,0,0,6,19.05a4.08,4.08,0,0,0-.61,0ZM4,23.05a2,2,0,0,1,1.7-2l.3,0a2,2,0,0,1,1.43.61,1.85,1.85,0,0,1,.3.39,2,2,0,0,1,.27,1,2,2,0,0,1-.08.56,2,2,0,0,1-.19.44,2,2,0,0,1-3.39.12,1.86,1.86,0,0,1-.27-.61,1.34,1.34,0,0,1-.06-.4,0,0,0,0,1,0,0ZM9.87,24H58v8.05H6v-5A4,4,0,0,0,9.87,24ZM58,57a1,1,0,0,1-1,1H7a1,1,0,0,1-1-1V34H58Z" style="fill:#8d6c9f;"/><path d="M19.19,17.76h.16a1,1,0,0,0,.83-1.14l-.31-2a1,1,0,0,0-2,.31l.31,2A1,1,0,0,0,19.19,17.76Z" style="fill:#faefde;"/><path d="M14.25,18.54h.16a1,1,0,0,0,.83-1.14l-.31-2a1,1,0,0,0-2,.31l.31,2A1,1,0,0,0,14.25,18.54Z" style="fill:#faefde;"/><path d="M9.31,19.32h.16a1,1,0,0,0,.83-1.14l-.31-2a1,1,0,0,0-2,.31l.31,2A1,1,0,0,0,9.31,19.32Z" style="fill:#faefde;"/><path d="M34,15.41h.16A1,1,0,0,0,35,14.25l-.31-2a1,1,0,0,0-2,.31l.31,2A1,1,0,0,0,34,15.41Z" style="fill:#faefde;"/><path d="M38.94,14.63h.16a1,1,0,0,0,.83-1.14l-.31-2a1,1,0,0,0-2,.31l.31,2A1,1,0,0,0,38.94,14.63Z" style="fill:#faefde;"/><path d="M43.88,13.85H44a1,1,0,0,0,.83-1.14l-.31-2a1,1,0,0,0-2,.31l.31,2A1,1,0,0,0,43.88,13.85Z" style="fill:#faefde;"/><path d="M48.82,13.06H49a1,1,0,0,0,.83-1.14l-.31-2a1,1,0,0,0-2,.31l.31,2A1,1,0,0,0,48.82,13.06Z" style="fill:#faefde;"/><path d="M53.76,12.28h.16a1,1,0,0,0,.83-1.14l-.31-2a1,1,0,0,0-2,.31l.31,2A1,1,0,0,0,53.76,12.28Z" style="fill:#faefde;"/><path d="M24.13,17h.16a1,1,0,0,0,.83-1.14l-.31-2a1,1,0,0,0-2,.31l.31,2A1,1,0,0,0,24.13,17Z" style="fill:#faefde;"/><path d="M29.06,16.19h.16A1,1,0,0,0,30.05,15l-.31-2a1,1,0,0,0-2,.31l.31,2A1,1,0,0,0,29.06,16.19Z" style="fill:#faefde;"/><path d="M20,30.05a1,1,0,0,0,1-1v-2a1,1,0,0,0-2,0v2A1,1,0,0,0,20,30.05Z" style="fill:#faefde;"/><path d="M15,30.05a1,1,0,0,0,1-1v-2a1,1,0,0,0-2,0v2A1,1,0,0,0,15,30.05Z" style="fill:#faefde;"/><path d="M10,30.05a1,1,0,0,0,1-1v-2a1,1,0,0,0-2,0v2A1,1,0,0,0,10,30.05Z" style="fill:#faefde;"/><path d="M35,30.05a1,1,0,0,0,1-1v-2a1,1,0,0,0-2,0v2A1,1,0,0,0,35,30.05Z" style="fill:#faefde;"/><path d="M40,30.05a1,1,0,0,0,1-1v-2a1,1,0,0,0-2,0v2A1,1,0,0,0,40,30.05Z" style="fill:#faefde;"/><path d="M45,30.05a1,1,0,0,0,1-1v-2a1,1,0,0,0-2,0v2A1,1,0,0,0,45,30.05Z" style="fill:#faefde;"/><path d="M50,30.05a1,1,0,0,0,1-1v-2a1,1,0,0,0-2,0v2A1,1,0,0,0,50,30.05Z" style="fill:#faefde;"/><path d="M55,30.05a1,1,0,0,0,1-1v-2a1,1,0,0,0-2,0v2A1,1,0,0,0,55,30.05Z" style="fill:#faefde;"/><path d="M25,30.05a1,1,0,0,0,1-1v-2a1,1,0,0,0-2,0v2A1,1,0,0,0,25,30.05Z" style="fill:#faefde;"/><path d="M30,30.05a1,1,0,0,0,1-1v-2a1,1,0,0,0-2,0v2A1,1,0,0,0,30,30.05Z" style="fill:#faefde;"/><path d="M11,42H21a1,1,0,0,0,0-2H11a1,1,0,0,0,0,2Z" style="fill:#8d6c9f;"/><path d="M29,44H15a1,1,0,0,0,0,2H29a1,1,0,0,0,0-2Z" style="fill:#8d6c9f;"/><path d="M25,42h4a1,1,0,0,0,0-2H25a1,1,0,0,0,0,2Z" style="fill:#8d6c9f;"/><path d="M37,42H53a1,1,0,0,0,0-2H37a1,1,0,0,0,0,2Z" style="fill:#8d6c9f;"/><path d="M53,44H49a1,1,0,0,0,0,2h4a1,1,0,0,0,0-2Z" style="fill:#8d6c9f;"/><path d="M37,46h8a1,1,0,0,0,0-2H37a1,1,0,0,0,0,2Z" style="fill:#8d6c9f;"/></svg>
