<?xml version="1.0"?>
<svg xmlns="http://www.w3.org/2000/svg" id="Layer_1" data-name="Layer 1" viewBox="0 0 64 64"><title>Dusk Part 1</title><path d="M10,57H4V51h6a13,13,0,0,0,12-8l5.25,1C25.07,51.12,17.55,57,10,57Z" style="fill:#ffeb9b;"/><polygon points="30 43 18 43 16 39 32 39 30 43" style="fill:#acb7d0;"/><rect x="1" y="29" width="50" height="10" rx="2" ry="2" style="fill:#c2cde7;"/><path d="M55.66,29H4a3,3,0,0,1-3-3V12A3,3,0,0,1,4,9H59.16a3,3,0,0,1,2.91,3.73l-3.5,14A3,3,0,0,1,55.66,29Z" style="fill:#acb7d0;"/><path d="M59.16,9H4a3,3,0,0,0-3,3H62.16A3,3,0,0,0,59.16,9Z" style="fill:#c2cde7;"/><circle cx="41" cy="19" r="4" style="fill:#ed7899;"/><circle cx="41" cy="19" r="2" style="fill:#f283a5;"/><polygon points="61 23 58.38 23 56.23 29.45 52 30 52 35 61 35 61 23" style="fill:#d2edff;"/><rect x="52" y="32" width="9" height="3" style="fill:#bbdef9;"/><rect x="7" y="5" width="6" height="4" style="fill:#ffeb9b;"/><path d="M41,14a5,5,0,1,0,5,5A5,5,0,0,0,41,14Zm0,8.34A3.35,3.35,0,1,1,44.37,19,3.34,3.34,0,0,1,41,22.33Z" style="fill:#8d6c9f;"/><path d="M25,18H15a1,1,0,1,0,0,2H25a1,1,0,1,0,0-2Z" style="fill:#8d6c9f;"/><path d="M33,18H29a1,1,0,1,0,0,2h4a1,1,0,1,0,0-2Z" style="fill:#8d6c9f;"/><path d="M62.72,9.21A3,3,0,0,0,60.31,8H14V6a2,2,0,0,0-2-2H8A2,2,0,0,0,6,6V8H3a3,3,0,0,0-3,3V37a3,3,0,0,0,3,3H15.38l1.17,2.34A3,3,0,0,0,19.24,44h.56A11,11,0,0,1,10,50H4V47a1,1,0,0,0-2,0V61a1,1,0,0,0,2,0V58h6A18.91,18.91,0,0,0,28.32,44h.45a3,3,0,0,0,2.68-1.66L32.62,40H49a3,3,0,0,0,3-3V36h8a2,2,0,0,0,2-2V24a2,2,0,0,0-1.86-2l3-10.15A3,3,0,0,0,62.72,9.21ZM8,6h4V8H8Zm2,50H4V52h6a13,13,0,0,0,12-8h4.25A16.92,16.92,0,0,1,10,56ZM29.66,41.45a1,1,0,0,1-.89.55H19.24a1,1,0,0,1-.89-.55L17.62,40H30.38ZM50,37a1,1,0,0,1-1,1H3a1,1,0,0,1-1-1V29.82A3,3,0,0,0,3,30H50ZM60,24V34H52V30h3.51a3,3,0,0,0,2.87-2.14L59.54,24Zm1.27-12.71-4.8,16a1,1,0,0,1-1,.71H3a1,1,0,0,1-1-1V11a1,1,0,0,1,1-1H60.31a1,1,0,0,1,1,1.29Z" style="fill:#8d6c9f;"/><path d="M11,32a1,1,0,0,0-1,1v2a1,1,0,0,0,2,0V33A1,1,0,0,0,11,32Z" style="fill:#8d6c9f;"/><path d="M6,32a1,1,0,0,0-1,1v2a1,1,0,0,0,2,0V33A1,1,0,0,0,6,32Z" style="fill:#8d6c9f;"/><path d="M16,32a1,1,0,0,0-1,1v2a1,1,0,0,0,2,0V33A1,1,0,0,0,16,32Z" style="fill:#8d6c9f;"/><path d="M21,32a1,1,0,0,0-1,1v2a1,1,0,0,0,2,0V33A1,1,0,0,0,21,32Z" style="fill:#8d6c9f;"/><path d="M26,32a1,1,0,0,0-1,1v2a1,1,0,0,0,2,0V33A1,1,0,0,0,26,32Z" style="fill:#8d6c9f;"/><path d="M31,32a1,1,0,0,0-1,1v2a1,1,0,0,0,2,0V33A1,1,0,0,0,31,32Z" style="fill:#8d6c9f;"/><path d="M36,32a1,1,0,0,0-1,1v2a1,1,0,0,0,2,0V33A1,1,0,0,0,36,32Z" style="fill:#8d6c9f;"/><path d="M41,32a1,1,0,0,0-1,1v2a1,1,0,0,0,2,0V33A1,1,0,0,0,41,32Z" style="fill:#8d6c9f;"/><path d="M46,32a1,1,0,0,0-1,1v2a1,1,0,0,0,2,0V33A1,1,0,0,0,46,32Z" style="fill:#8d6c9f;"/></svg>
