<?xml version="1.0"?>
<svg xmlns="http://www.w3.org/2000/svg" id="Layer_1" data-name="Layer 1" viewBox="0 0 64 64"><title>Icons8 RSL Colored Part 12</title><path d="M59,29c0,.48,0,1,0,1.44A28,28,0,0,1,32.44,57c-.48,0-1,0-1.44,0a27.73,27.73,0,0,1-11.24-2.36A24.52,24.52,0,0,1,17.1,53.3a26.12,26.12,0,0,1-3.57-2.43A26.4,26.4,0,0,1,9,46.36,28,28,0,0,1,48.36,7a26.39,26.39,0,0,1,4.51,4.49A26.11,26.11,0,0,1,55.3,15.1a24.51,24.51,0,0,1,1.34,2.66A27.73,27.73,0,0,1,59,29Z" style="fill:#f9dd8f;"/><path d="M59,29c0,.48,0,1,0,1.44L32.44,57c-.48,0-1,0-1.44,0a27.73,27.73,0,0,1-11.24-2.36L56.64,17.76A27.73,27.73,0,0,1,59,29Z" style="fill:#ffefb8;"/><path d="M55.3,15.1,17.1,53.3a26.12,26.12,0,0,1-3.57-2.43L52.87,11.53A26.11,26.11,0,0,1,55.3,15.1Z" style="fill:#ffefb8;"/><path d="M51,9.4,11.4,49A26.81,26.81,0,0,1,9,46.36L48.36,7A26.81,26.81,0,0,1,51,9.4Z" style="fill:#ffefb8;"/><circle cx="31" cy="13" r="7" style="fill:#b5c4e0;"/><circle cx="31" cy="45" r="7" style="fill:#b5c4e0;"/><circle cx="15" cy="29" r="7" style="fill:#b5c4e0;"/><circle cx="47" cy="29" r="7" style="fill:#b5c4e0;"/><circle cx="31" cy="29" r="2" style="fill:#8d6c9f;"/><path d="M31,21a8,8,0,1,0-8-8A8,8,0,0,0,31,21ZM31,7a6,6,0,1,1-6,6A6,6,0,0,1,31,7Z" style="fill:#8d6c9f;"/><path d="M31,37a8,8,0,1,0,8,8A8,8,0,0,0,31,37Zm0,14a6,6,0,1,1,6-6A6,6,0,0,1,31,51Z" style="fill:#8d6c9f;"/><path d="M15,21a8,8,0,1,0,8,8A8,8,0,0,0,15,21Zm0,14a6,6,0,1,1,6-6A6,6,0,0,1,15,35Z" style="fill:#8d6c9f;"/><path d="M47,21a8,8,0,1,0,8,8A8,8,0,0,0,47,21Zm0,14a6,6,0,1,1,6-6A6,6,0,0,1,47,35Z" style="fill:#8d6c9f;"/><path d="M63.7,62.41l-1.72-2a17,17,0,0,1-4.1-11.07V39.86a29,29,0,1,0-2,4v5.46a19,19,0,0,0,4.58,12.38l1.72,2a1,1,0,1,0,1.52-1.3ZM31,56A27,27,0,0,1,8,14.88V15a1,1,0,0,0,2,0V13a1,1,0,0,0-.24-.63,27,27,0,0,1,42.49,0A1,1,0,0,0,52,13v2a1,1,0,0,0,2,0v-.12A27,27,0,0,1,31,56Z" style="fill:#8d6c9f;"/><path d="M14,16a1,1,0,0,0,1-1V13a1,1,0,0,0-2,0v2A1,1,0,0,0,14,16Z" style="fill:#8d6c9f;"/><path d="M19,16a1,1,0,0,0,1-1V13a1,1,0,0,0-2,0v2A1,1,0,0,0,19,16Z" style="fill:#8d6c9f;"/><path d="M43,16a1,1,0,0,0,1-1V13a1,1,0,0,0-2,0v2A1,1,0,0,0,43,16Z" style="fill:#8d6c9f;"/><path d="M48,16a1,1,0,0,0,1-1V13a1,1,0,0,0-2,0v2A1,1,0,0,0,48,16Z" style="fill:#8d6c9f;"/><polygon points="40.96 15.5 39.73 17.76 37.46 19 39.73 20.24 40.96 22.5 42.2 20.24 44.47 19 42.2 17.76 40.96 15.5" style="fill:#fff8f8;"/><polygon points="26.04 22.5 25.19 24.06 23.62 24.92 25.19 25.77 26.04 27.34 26.9 25.77 28.46 24.92 26.9 24.06 26.04 22.5" style="fill:#fff8f8;"/><polygon points="42.11 38.2 41.53 39.27 40.46 39.85 41.53 40.44 42.11 41.5 42.69 40.44 43.76 39.85 42.69 39.27 42.11 38.2" style="fill:#fff8f8;"/></svg>
