<?xml version="1.0"?>
<svg xmlns="http://www.w3.org/2000/svg" id="Layer_1" data-name="Layer 1" viewBox="0 0 64 64"><title>Icons8 RSL Colored Part 5</title><path d="M55,55H4a3,3,0,0,1-3-3V12A3,3,0,0,1,4,9H20l6,6H52a3,3,0,0,1,3,3Z" style="fill:#faefde;"/><path d="M4,9H20l7,7H1V12A3,3,0,0,1,4,9Z" style="fill:#fff7f0;"/><path d="M55,19h4a2,2,0,0,1,2,2V52a3,3,0,0,1-3,3H55a0,0,0,0,1,0,0V19A0,0,0,0,1,55,19Z" style="fill:#cda1a7;"/><path d="M1,45H55a0,0,0,0,1,0,0V55a0,0,0,0,1,0,0H4a3,3,0,0,1-3-3V45A0,0,0,0,1,1,45Z" style="fill:#efd8be;"/><path d="M23,22.84V38a1,1,0,0,0,1.58.81L36.88,30,24.54,22A1,1,0,0,0,23,22.84Z" style="fill:#72caaf;"/><path d="M51,44H47a1,1,0,0,0,0,2h4a1,1,0,0,0,0-2Z" style="fill:#8d6c9f;"/><path d="M59,18H56V17a3,3,0,0,0-3-3H27.71a3,3,0,0,1-2.11-.87L21.87,9.45A5,5,0,0,0,18.36,8H3a3,3,0,0,0-3,3V52a4,4,0,0,0,4,4H58a4,4,0,0,0,4-4V21A3,3,0,0,0,59,18ZM4,54a2,2,0,0,1-2-2V46H43a1,1,0,0,0,0-2H2V11a1,1,0,0,1,1-1H18.36a3,3,0,0,1,2.11.87l3.72,3.69A5,5,0,0,0,27.71,16H53a1,1,0,0,1,1,1V52a3.94,3.94,0,0,0,.63,2Zm56-2a2,2,0,0,1-2,2,2.26,2.26,0,0,1-2-2V20h3a1,1,0,0,1,1,1Z" style="fill:#8d6c9f;"/><path d="M5,48a1,1,0,0,0-1,1v2a1,1,0,0,0,2,0V49A1,1,0,0,0,5,48Z" style="fill:#8d6c9f;"/><path d="M10,48a1,1,0,0,0-1,1v2a1,1,0,0,0,2,0V49A1,1,0,0,0,10,48Z" style="fill:#8d6c9f;"/><path d="M15,48a1,1,0,0,0-1,1v2a1,1,0,0,0,2,0V49A1,1,0,0,0,15,48Z" style="fill:#8d6c9f;"/><path d="M20,48a1,1,0,0,0-1,1v2a1,1,0,0,0,2,0V49A1,1,0,0,0,20,48Z" style="fill:#8d6c9f;"/><path d="M25,48a1,1,0,0,0-1,1v2a1,1,0,0,0,2,0V49A1,1,0,0,0,25,48Z" style="fill:#8d6c9f;"/><path d="M30,48a1,1,0,0,0-1,1v2a1,1,0,0,0,2,0V49A1,1,0,0,0,30,48Z" style="fill:#8d6c9f;"/><path d="M35,48a1,1,0,0,0-1,1v2a1,1,0,0,0,2,0V49A1,1,0,0,0,35,48Z" style="fill:#8d6c9f;"/><path d="M40,48a1,1,0,0,0-1,1v2a1,1,0,0,0,2,0V49A1,1,0,0,0,40,48Z" style="fill:#8d6c9f;"/><path d="M45,48a1,1,0,0,0-1,1v2a1,1,0,0,0,2,0V49A1,1,0,0,0,45,48Z" style="fill:#8d6c9f;"/><path d="M50,48a1,1,0,0,0-1,1v2a1,1,0,0,0,2,0V49A1,1,0,0,0,50,48Z" style="fill:#8d6c9f;"/><path d="M38,28.31,25,20.13a2,2,0,0,0-2-.06,2,2,0,0,0-1,1.75V38.18a2,2,0,0,0,1,1.75,2,2,0,0,0,2-.06L38,31.69a2,2,0,0,0,0-3.38ZM24,38.19V21.82L36.88,30Z" style="fill:#8d6c9f;"/></svg>
